<svg id="Capa_1" enable-background="new 0 0 512 512" height="512" viewBox="0 0 512 512" width="512" xmlns="http://www.w3.org/2000/svg"><g><path d="m442.498 267.642v-115.084h-68.678c-9.598 0-18.957 1.033-27.983 2.976-3.89-31.111-20.273-59.934-45.483-79.047l-44.354-33.626-44.354 33.626c-25.21 19.113-41.594 47.936-45.484 79.047-9.025-1.943-18.385-2.976-27.983-2.976h-68.677v115.084h-69.502v68.678c0 73.237 59.583 132.819 132.82 132.819h246.36c73.237 0 132.82-59.582 132.82-132.819v-68.678zm-30-85.084v85.084h-38.678c-41.406 0-78.443 19.049-102.82 48.839v-31.103c0-56.695 46.125-102.82 102.82-102.82zm-182.728-82.165 26.23-19.886 26.229 19.886c20.452 15.506 33.096 39.6 34.393 65.126-25.986 12.451-47.316 33.11-60.622 58.596-13.306-25.487-34.636-46.146-60.622-58.596 1.296-25.525 13.94-49.62 34.392-65.126zm-130.268 82.165h38.677c56.695 0 102.82 46.125 102.82 102.82v31.103c-24.377-29.79-61.414-48.839-102.82-48.839h-38.677zm141.498 256.581h-108.18c-56.695 0-102.82-46.125-102.82-102.819v-38.678h108.18c56.695 0 102.82 46.125 102.82 102.82zm241-102.819c0 56.694-46.125 102.819-102.82 102.819h-108.18v-38.677c0-56.695 46.125-102.82 102.82-102.82h108.18z"/></g></svg>